<svg width="16" height="16" viewBox="0 0 16 16" fill="none" xmlns="http://www.w3.org/2000/svg">
<g id="filled">
<path id="vector" fill-rule="evenodd" clip-rule="evenodd" d="M8 11.3333C6.13333 11.3333 4.66667 9.86659 4.66667 7.99992C4.66667 6.13325 6.13333 4.66659 8 4.66659C9.86667 4.66659 11.3333 6.13325 11.3333 7.99992C11.3333 8.19992 11.3333 8.46659 11.2666 8.66659C11.7999 8.46659 12.4 8.33325 13 8.33325C14 8.33325 14.8667 8.66659 15.6667 9.13326C15.6939 9.05162 15.7211 8.97276 15.7477 8.89554L15.7478 8.89548C15.8517 8.59438 15.9469 8.31826 16 7.99992C15.0667 4.13325 11.8667 1.33325 8 1.33325C4.13333 1.33325 0.933333 4.13325 0 7.99992C0.933333 11.8666 4.13333 14.6666 8 14.6666H8.66667C8.46667 14.1333 8.33333 13.5999 8.33333 12.9999C8.33333 12.3999 8.46667 11.7999 8.66667 11.2666C8.46672 11.3333 8.20013 11.3333 8.00015 11.3333H8ZM8 9.33325C8.73638 9.33325 9.33333 8.7363 9.33333 7.99992C9.33333 7.26354 8.73638 6.66659 8 6.66659C7.26362 6.66659 6.66667 7.26354 6.66667 7.99992C6.66667 8.7363 7.26362 9.33325 8 9.33325ZM13 11.6666L14.6667 9.99992L16 11.3333L14.3333 12.9999L16 14.6666L14.6667 15.9999L13 14.3333L11.3333 15.9999L10 14.6666L11.6667 12.9999L10 11.3333L11.3333 9.99992L13 11.6666Z" fill="black"/>
</g>
</svg>
