<svg width="16" height="16" viewBox="0 0 16 16" fill="none" xmlns="http://www.w3.org/2000/svg">
<g id="filled">
<path id="vector" fill-rule="evenodd" clip-rule="evenodd" d="M0 7.99992C0.933333 4.13325 4.13333 1.33325 8 1.33325C11.8667 1.33325 15.0667 4.13325 16 7.99992C15.0667 11.8666 11.8667 14.6666 8 14.6666C4.13333 14.6666 0.933333 11.8666 0 7.99992ZM4.66667 7.99992C4.66667 9.86659 6.13333 11.3333 8 11.3333C9.86667 11.3333 11.3333 9.86659 11.3333 7.99992C11.3333 6.13325 9.86667 4.66659 8 4.66659C6.13333 4.66659 4.66667 6.13325 4.66667 7.99992ZM9.33333 7.99992C9.33333 8.7363 8.73638 9.33325 8 9.33325C7.26362 9.33325 6.66667 8.7363 6.66667 7.99992C6.66667 7.26354 7.26362 6.66658 8 6.66658C8.73638 6.66658 9.33333 7.26354 9.33333 7.99992Z" fill="black"/>
</g>
</svg>
